HIERARCHY
ROOT Bip001_Pelvis
{
  OFFSET 7.937 94.8971 -8.5489
  CHANNELS 6 Xposition Yposition Zposition Zrotation Xrotation Yrotation
  JOINT Bip001_Spine
  {
    OFFSET 1.44608e-005 10.4157 -0.0118244
    CHANNELS 3 Zrotation Xrotation Yrotation
    JOINT Bip001_L_Thigh
    {
      OFFSET 11.2582 -10.4157 0.0118432
      CHANNELS 3 Zrotation Xrotation Yrotation
      JOINT Bip001_L_Calf
      {
        OFFSET -0.720717 -44.8687 0.366937
        CHANNELS 3 Zrotation Xrotation Yrotation
        JOINT Bip001_L_Foot
        {
          OFFSET -0.664439 -41.3745 -3.62995
          CHANNELS 3 Zrotation Xrotation Yrotation
          JOINT Bip001_L_Toe0
          {
            OFFSET 0.0541047 -10.4146 13.4033
            CHANNELS 3 Zrotation Xrotation Yrotation
            End Site
            {
              OFFSET -1.04503e-005 0 7.70137
            }
          }
        }
      }
    }
    JOINT Bip001_R_Thigh
    {
      OFFSET -11.2582 -10.4156 0.0118122
      CHANNELS 3 Zrotation Xrotation Yrotation
      JOINT Bip001_R_Calf
      {
        OFFSET 0.72059 -44.8687 0.36676
        CHANNELS 3 Zrotation Xrotation Yrotation
        JOINT Bip001_R_Foot
        {
          OFFSET 0.664321 -41.3745 -3.62979
          CHANNELS 3 Zrotation Xrotation Yrotation
          JOINT Bip001_R_Toe0
          {
            OFFSET -0.05417 -10.4146 13.4033
            CHANNELS 3 Zrotation Xrotation Yrotation
            End Site
            {
              OFFSET -1.04873e-005 0 7.70137
            }
          }
        }
      }
    }
    JOINT Bip001_Spine1
    {
      OFFSET 1.90638e-005 14.8539 1.10727
      CHANNELS 3 Zrotation Xrotation Yrotation
      JOINT Bip001_Spine2
      {
        OFFSET 2.28934e-005 14.7848 -1.7233
        CHANNELS 3 Zrotation Xrotation Yrotation
        JOINT Bip001_Neck
        {
          OFFSET 2.24514e-005 15.6905 -0.498826
          CHANNELS 3 Zrotation Xrotation Yrotation
          JOINT Bip001_L_Clavicle
          {
            OFFSET 6.17691 -0.000591152 0.00852867
            CHANNELS 3 Zrotation Xrotation Yrotation
            JOINT Bip001_L_UpperArm
            {
              OFFSET 11.773 -0.0611878 0.00197697
              CHANNELS 3 Zrotation Xrotation Yrotation
              JOINT Bip001_L_Forearm
              {
                OFFSET 26.4515 0.0817568 -2.19579
                CHANNELS 3 Zrotation Xrotation Yrotation
                JOINT Bip001_L_Hand
                {
                  OFFSET 32.8677 0.156744 1.67112
                  CHANNELS 3 Zrotation Xrotation Yrotation
                  JOINT Bip001_L_Finger0
                  {
                    OFFSET 6.16268 -2.25226 6.01674
                    CHANNELS 3 Zrotation Xrotation Yrotation
                    End Site
                    {
                      OFFSET 4.30499 -1.46662 0.618148
                    }
                  }
                  JOINT Bip001_L_Finger1
                  {
                    OFFSET 11.2957 -0.718374 -0.201963
                    CHANNELS 3 Zrotation Xrotation Yrotation
                    End Site
                    {
                      OFFSET 6.31952 -0.405163 -0.0802303
                    }
                  }
                }
              }
            }
          }
          JOINT Bip001_R_Clavicle
          {
            OFFSET -6.17691 -0.000574027 0.00851165
            CHANNELS 3 Zrotation Xrotation Yrotation
            JOINT Bip001_R_UpperArm
            {
              OFFSET -11.773 -0.0611516 0.00194365
              CHANNELS 3 Zrotation Xrotation Yrotation
              JOINT Bip001_R_Forearm
              {
                OFFSET -26.4514 0.0822334 -2.19736
                CHANNELS 3 Zrotation Xrotation Yrotation
                JOINT Bip001_R_Hand
                {
                  OFFSET -32.8677 0.156817 1.67144
                  CHANNELS 3 Zrotation Xrotation Yrotation
                  JOINT Bip001_R_Finger0
                  {
                    OFFSET -6.1627 -2.25224 6.0167
                    CHANNELS 3 Zrotation Xrotation Yrotation
                    End Site
                    {
                      OFFSET -4.30499 -1.46662 0.618134
                    }
                  }
                  JOINT Bip001_R_Finger1
                  {
                    OFFSET -11.2958 -0.718344 -0.201994
                    CHANNELS 3 Zrotation Xrotation Yrotation
                    End Site
                    {
                      OFFSET -6.31952 -0.405146 -0.0802475
                    }
                  }
                }
              }
            }
          }
          JOINT Bip001_Head
          {
            OFFSET 1.11782e-005 11.4912 2.09908
            CHANNELS 3 Zrotation Xrotation Yrotation
            End Site
            {
              OFFSET 2.95144e-005 21.2823 -2.83069e-005
            }
          }
        }
      }
    }
  }
}
MOTION
Frames:	10
Frame Time:	0.04
6.62685 94.8486 -7.97514 0.20177 3.23109 32.7247 -1.14813 0.507769 1.69105 1.11898 -17.4894 1.72424 1.55417 15.6974 -15.2532 -2.65367 -1.24285 -10.2224 0.619502 -10.3561 -1.68018 -6.75063 -2.69325 -8.62985 1.98351 17.5869 -5.28771 -2.33494 -13.1294 -25.2394 1.55612 -11.2466 -2.72296 -2.01997 0.98591 3.3815 -2.01998 0.985912 3.3815 0.175183 3.48243 -4.53963 -29.2078 0.131255 -8.94894 -48.5675 37.7484 9.07875 19.349 5.15864 -30.878 -4.46301 0.0639032 -2.20174 3.18055e-015 -6.36111e-015 3.18055e-015 3.97569e-015 -3.18056e-015 6.36111e-015 17.3122 1.39892 15.3611 29.7507 -29.23 25.3858 -58.9388 3.85486 85.3139 -32.2992 10.5503 -4.61736 3.18055e-015 0 -3.97569e-015 4.77083e-015 -3.18056e-015 -3.18055e-015 -0.51685 3.75238 -4.27675 
6.66329 94.9254 -8.10063 0.487749 3.07559 31.2202 -1.0688 0.614272 1.69868 1.15852 -16.9014 2.7195 1.57007 15.1586 -15.0454 -2.69383 -1.11559 -9.88605 0.614327 -10.3579 -1.68683 -7.20818 -2.90137 -8.3752 2.00177 17.5569 -5.09965 -2.09972 -12.9305 -24.3394 1.32405 -11.2593 -2.50956 -1.90765 1.20033 3.40157 -1.90765 1.20033 3.40158 -1.76408 2.69331 -3.60321 -27.8283 0.891609 -7.88276 -48.5128 37.6773 8.66712 18.3834 6.35103 -28.4205 -5.16365 0.0283573 -2.04801 -1.59028e-015 9.54166e-015 -3.18055e-015 7.95139e-016 6.36111e-015 -4.77083e-015 19.0134 2.45223 16.2148 29.0491 -28.144 24.0413 -60.9816 3.26949 85.5561 -33.8904 9.66711 -1.86073 3.18055e-015 0 2.38542e-015 4.77083e-015 -3.18056e-015 7.95139e-016 0.46607 4.42475 -4.21571 
6.70132 95.0022 -8.23357 0.730754 2.71376 29.5088 -1.0404 0.692338 1.87724 1.4103 -16.2255 2.40302 1.17174 14.8564 -13.6078 -2.67421 -1.11228 -9.40235 0.610359 -10.3591 -1.66705 -7.53604 -2.9256 -8.88875 1.90851 17.4509 -4.48797 -1.90749 -12.6296 -23.0768 1.14012 -11.3043 -2.23944 -1.88109 1.35384 3.76305 -1.88248 1.35393 3.76296 -1.82382 2.48735 -3.87153 -28.4 1.29178 -8.35057 -48.3865 36.3958 9.33206 16.8539 6.87379 -26.2659 -5.75041 -0.0530838 -1.66604 -2.38542e-015 3.18055e-015 3.18055e-015 0 6.36111e-015 -0 20.7026 3.11259 16.4112 27.3274 -25.6241 20.0341 -63.1195 1.08262 87.5921 -39.0381 9.65662 -0.0180991 -1.59028e-015 -3.18055e-015 -0 -3.18055e-015 -3.18056e-015 -1.59028e-015 0.18449 4.67705 -4.41445 
6.63166 95.0667 -8.37026 0.74612 2.5201 27.9781 -1.05786 0.670236 1.84375 1.83504 -15.8202 2.26197 0.903902 14.6569 -12.3528 -2.76041 -1.1354 -8.92825 0.613139 -10.3564 -1.62029 -7.52478 -3.167 -8.52406 1.84254 17.3276 -4.14521 -1.81658 -12.2989 -22.3572 0.993131 -11.3244 -2.04913 -1.92071 1.30942 3.70297 -1.92034 1.30934 3.70299 -1.73331 2.45609 -4.00115 -28.2864 1.34503 -8.51686 -49.2287 35.8612 10.1757 15.7902 7.09117 -24.3507 -6.82052 -0.245862 -0.884672 -0 -3.18055e-015 -0 1.59028e-015 0 -0 23.2285 3.83147 16.689 24.4161 -20.9321 15.2962 -61.2595 -0.897243 89.5793 -41.6971 9.03872 2.67573 3.18055e-015 0 4.77083e-015 3.18055e-015 3.18056e-015 3.18055e-015 0.15184 4.84483 -4.50091 
6.63097 95.1407 -8.38928 0.8711 2.07341 26.3625 -1.02428 0.733357 1.6301 2.2806 -15.1239 2.3131 0.607411 14.4964 -11.2219 -2.8041 -1.26905 -8.25184 0.615844 -10.3528 -1.58231 -7.53103 -3.03828 -8.08854 1.74098 16.9348 -3.82871 -1.5898 -11.9312 -21.4252 0.733163 -11.3422 -1.78795 -1.87421 1.43968 3.28306 -1.87421 1.43968 3.28305 -2.25599 2.12204 -3.82066 -27.684 1.64876 -8.24385 -49.761 35.7807 10.466 14.3641 6.54849 -22.8251 -7.71127 -0.514028 -0.458423 3.97569e-016 0 -7.95139e-016 7.95139e-016 3.18056e-015 -1.59028e-015 25.4852 4.73919 17.1561 23.4867 -14.7732 10.0108 -61.7926 -2.33063 90.8071 -43.0858 8.30716 4.5882 1.59028e-015 -3.18055e-015 1.59028e-015 -3.18055e-015 0 -3.18055e-015 0.591641 5.34097 -4.59185 
6.66438 95.2136 -8.39781 1.08942 1.53252 24.6574 -0.9225 0.778609 1.43864 2.51977 -14.1773 3.19422 0.627952 14.2104 -10.7078 -2.89841 -1.38854 -7.78538 0.617658 -10.3482 -1.54971 -7.73717 -2.77514 -8.031 1.60225 16.5962 -3.39298 -1.29638 -11.5982 -20.1636 0.448893 -11.3629 -1.49811 -1.71795 1.53528 2.90154 -1.71795 1.53528 2.90155 -2.82901 1.91231 -3.95025 -27.9705 1.86548 -8.00869 -49.7741 36.7404 10.9886 13.664 8.14511 -21.2562 -8.10213 -0.370215 -1.02685 1.19271e-015 -6.36111e-015 -2.38542e-015 7.95139e-016 -3.18056e-015 -2.38542e-015 27.4325 5.40868 17.3217 24.7902 -7.51284 4.381 -62.0022 -1.79571 90.7332 -43.5791 7.16963 5.16435 3.18055e-015 -6.36111e-015 4.77083e-015 1.59028e-015 -3.18056e-015 -1.59028e-015 0.695486 5.76309 -4.91842 
6.71861 95.247 -8.396 1.26713 0.912395 22.5697 -0.851169 0.899968 1.22828 2.91337 -13.3371 4.02621 0.494289 14.2778 -10.0207 -2.91283 -1.77814 -7.07574 0.629025 -10.3175 -1.46248 -7.83747 -2.78465 -7.90157 1.27578 16.5715 -2.38618 -1.10214 -11.3531 -19.0483 0.300309 -11.3883 -1.3133 -1.61437 1.78232 2.48002 -1.61436 1.78231 2.48001 -3.51544 0.977108 -3.87683 -27.5933 2.6606 -7.28703 -50.0913 39.1069 10.6782 12.8465 7.18856 -19.8225 -8.41582 -0.499062 -0.972505 -3.97569e-016 0 -3.97569e-016 3.97569e-016 0 -3.97569e-016 29.4588 6.82516 17.5671 27.8951 -0.507288 -1.19318 -57.5209 1.31452 88.8367 -39.032 6.25131 4.98904 -1.59028e-014 0 -3.18055e-015 -1.59028e-014 0 -3.18055e-015 0.726307 6.39569 -5.02683 
6.76603 95.2792 -8.42635 1.33089 0.340601 19.9912 -0.813087 0.991281 1.11923 3.42513 -12.5101 4.92994 0.335191 14.4017 -8.99753 -2.96311 -2.25287 -6.44352 0.643659 -10.2758 -1.31913 -7.78875 -3.05354 -7.30802 0.872398 16.6271 -1.37597 -0.940488 -11.0399 -18.0101 0.214713 -11.4257 -1.14291 -1.56499 1.96694 2.25978 -1.56525 1.9669 2.26041 -3.69323 0.622347 -3.78921 -27.3406 3.07334 -7.34527 -51.0018 41.734 11.2247 12.7783 4.78877 -19.5926 -8.56914 -0.674458 -0.777891 2.20695e-032 -3.18055e-015 3.97569e-016 -3.97569e-016 0 3.97569e-016 30.884 7.57416 17.7954 33.1673 5.54359 -6.33923 -48.5903 5.04342 84.3434 -30.4608 6.11613 2.52675 1.59028e-015 1.59028e-015 -3.18055e-015 2.38542e-015 1.59028e-015 -0 0.843287 6.18741 -5.01445 
6.61695 95.2959 -8.58297 1.01345 0.305493 16.7885 -0.720864 0.915329 1.15696 4.32081 -12.2293 6.40987 -0.0313571 14.7539 -8.07107 -2.98421 -2.80823 -5.75021 0.653706 -10.2236 -1.16967 -7.42593 -4.18077 -4.56168 0.858335 16.8733 -1.3195 -1.03552 -10.6142 -17.7997 0.173796 -11.4483 -1.04111 -1.39684 1.81629 2.33346 -1.39526 1.81623 2.33349 -3.84851 0.680931 -3.71323 -27.4104 3.21798 -7.79676 -51.334 42.594 11.5028 12.9828 4.17979 -20.0378 -8.22528 -0.637064 -0.0713801 0 0 -7.95139e-016 -7.95139e-016 3.18056e-015 -3.97569e-016 32.5213 7.86591 17.7613 39.728 13.1486 -10.7644 -37.4947 3.80501 74.4835 -16.7784 6.4275 -4.79899 3.18055e-015 4.77083e-015 3.18055e-015 9.54166e-015 5.56597e-015 6.36111e-015 0.916382 5.68079 -5.00853 
6.76393 95.2936 -8.52471 1.22416 -0.795136 15.3949 -0.609676 1.11221 0.775367 4.3895 -11.0845 5.84036 -0.224174 14.9624 -6.5701 -3.04718 -3.26519 -5.11239 0.668796 -10.1721 -1.02219 -7.66687 -3.57708 -5.67051 0.47655 16.88 0.398624 -0.914029 -10.4974 -16.5907 0.130654 -11.497 -0.873761 -1.19768 2.21624 1.56762 -1.19388 2.21623 1.56855 -4.39745 0.564101 -3.27936 -27.0832 3.52094 -7.98659 -50.8077 41.9346 10.4053 13.1404 4.60838 -20.262 -7.51314 -0.516961 -0.337798 -0 -6.36111e-015 -0 7.95139e-016 -3.18056e-015 -7.95139e-016 34.1141 8.28273 18.0684 46.0857 17.8736 -13.9492 -26.0368 -1.77374 64.099 -2.60511 5.44123 -16.5734 -6.36111e-015 0 7.95139e-016 -6.36111e-015 1.59028e-015 2.38542e-015 1.24599 5.21506 -4.8354 
